<?xml version="1.0" encoding="utf-8"?>
<!-- Generator: Adobe Illustrator 16.0.0, SVG Export Plug-In . SVG Version: 6.00 Build 0)  -->
<!DOCTYPE svg PUBLIC "-//W3C//DTD SVG 1.1//EN" "http://www.w3.org/Graphics/SVG/1.1/DTD/svg11.dtd">
<svg version="1.1" id="Layer_1" xmlns="http://www.w3.org/2000/svg" xmlns:xlink="http://www.w3.org/1999/xlink" x="0px" y="0px"
	 width="245px" height="60px" viewBox="0 0 245 60" enable-background="new 0 0 245 60" xml:space="preserve">
<rect x="0.5" y="0.5" fill="#FFFFFF" stroke="#000000" stroke-miterlimit="10" width="244" height="60"/>
<rect x="1" fill-opacity="0.1" width="243" height="10"/>
<g>
	<path stroke="#000000" stroke-width="0.25" stroke-miterlimit="10" d="M11.609,22.337h1.641v7.056h2.391v1.563H11.61L11.609,22.337
		L11.609,22.337z"/>
	<path stroke="#000000" stroke-width="0.25" stroke-miterlimit="10" d="M20.958,22.12c1.22,0,2.268,0.44,3.146,1.323
		c0.878,0.884,1.316,1.959,1.316,3.229c0,1.259-0.433,2.322-1.299,3.193c-0.866,0.869-1.916,1.307-3.151,1.307
		c-1.294,0-2.369-0.445-3.225-1.342c-0.856-0.896-1.284-1.957-1.284-3.188c0-0.824,0.199-1.582,0.598-2.272
		c0.398-0.69,0.947-1.239,1.645-1.644C19.402,22.32,20.153,22.12,20.958,22.12z M20.94,23.727c-0.798,0-1.468,0.276-2.012,0.832
		c-0.544,0.555-0.815,1.26-0.815,2.114c0,0.953,0.342,1.707,1.026,2.263c0.532,0.434,1.142,0.649,1.83,0.649
		c0.778,0,1.441-0.28,1.988-0.844c0.547-0.564,0.821-1.257,0.821-2.08c0-0.82-0.276-1.515-0.827-2.083
		C22.4,24.01,21.73,23.727,20.94,23.727z"/>
	<path stroke="#000000" stroke-width="0.25" stroke-miterlimit="10" d="M34.924,23.743l-1.155,1.143
		c-0.731-0.771-1.583-1.159-2.557-1.159c-0.848,0-1.559,0.28-2.131,0.844c-0.573,0.562-0.859,1.246-0.859,2.051
		c0,0.832,0.297,1.537,0.892,2.115c0.595,0.578,1.328,0.867,2.2,0.867c0.567,0,1.045-0.119,1.434-0.357
		c0.389-0.238,0.703-0.611,0.941-1.119h-2.496v-1.541h4.336l0.012,0.363c0,0.754-0.195,1.469-0.586,2.145
		c-0.391,0.676-0.896,1.191-1.518,1.547c-0.622,0.354-1.35,0.531-2.186,0.531c-0.895,0-1.692-0.191-2.394-0.583
		c-0.702-0.389-1.256-0.942-1.664-1.661c-0.408-0.719-0.612-1.494-0.612-2.326c0-1.141,0.377-2.133,1.131-2.977
		c0.895-1.004,2.059-1.506,3.492-1.506c0.75,0,1.451,0.139,2.104,0.416C33.857,22.771,34.396,23.173,34.924,23.743z"/>
	<path stroke="#000000" stroke-width="0.25" stroke-miterlimit="10" d="M41.114,22.12c1.22,0,2.268,0.44,3.146,1.323
		c0.878,0.884,1.316,1.959,1.316,3.229c0,1.259-0.433,2.322-1.299,3.193c-0.866,0.869-1.916,1.307-3.151,1.307
		c-1.294,0-2.369-0.445-3.225-1.342c-0.856-0.896-1.284-1.957-1.284-3.188c0-0.824,0.199-1.582,0.598-2.272
		c0.398-0.69,0.947-1.239,1.645-1.644C39.558,22.32,40.309,22.12,41.114,22.12z M41.097,23.727c-0.798,0-1.468,0.276-2.012,0.832
		c-0.544,0.555-0.815,1.26-0.815,2.114c0,0.953,0.342,1.707,1.026,2.263c0.532,0.434,1.142,0.649,1.83,0.649
		c0.778,0,1.441-0.28,1.988-0.844c0.547-0.563,0.821-1.257,0.821-2.08c0-0.82-0.276-1.515-0.827-2.083
		C42.557,24.01,41.887,23.727,41.097,23.727z"/>
</g>
<rect x="81.25" y="19.5" fill="#FFFFFF" stroke="#000000" stroke-width="0.5" stroke-miterlimit="10" width="80" height="14"/>
<g>
	<path d="M157.242,29.805c0.13,0.131,0.195,0.287,0.195,0.469c0,0.183-0.065,0.337-0.195,0.47c-0.131,0.131-0.286,0.193-0.469,0.193
		c-0.186,0-0.34-0.062-0.469-0.193l-1.729-1.728c-0.007-0.006-0.011-0.01-0.015-0.016c-0.002-0.006-0.006-0.01-0.012-0.016
		c-0.255,0.172-0.535,0.305-0.84,0.397c-0.305,0.092-0.621,0.142-0.949,0.142c-0.453,0-0.877-0.086-1.271-0.258
		c-0.396-0.166-0.741-0.398-1.035-0.695c-0.294-0.297-0.524-0.644-0.699-1.039c-0.172-0.396-0.258-0.818-0.258-1.266
		c0-0.453,0.086-0.877,0.258-1.273c0.175-0.396,0.405-0.74,0.699-1.035s0.642-0.527,1.035-0.699
		c0.395-0.172,0.821-0.258,1.274-0.258c0.448,0,0.871,0.086,1.269,0.258c0.396,0.172,0.739,0.404,1.036,0.699
		c0.3,0.295,0.529,0.639,0.695,1.035c0.172,0.396,0.258,0.82,0.258,1.273c0,0.327-0.047,0.645-0.141,0.948
		c-0.094,0.303-0.227,0.584-0.398,0.841c0.008,0.006,0.014,0.01,0.019,0.012s0.013,0.006,0.019,0.012L157.242,29.805z
		 M152.766,28.391c0.293,0,0.567-0.055,0.828-0.164c0.262-0.108,0.487-0.262,0.68-0.457c0.193-0.194,0.347-0.42,0.453-0.676
		c0.109-0.26,0.164-0.537,0.164-0.828c0-0.297-0.055-0.576-0.164-0.836c-0.106-0.256-0.261-0.479-0.453-0.672
		c-0.189-0.193-0.418-0.346-0.68-0.461c-0.261-0.109-0.535-0.164-0.828-0.164c-0.297,0-0.574,0.055-0.836,0.164
		c-0.255,0.115-0.479,0.268-0.672,0.461c-0.193,0.193-0.347,0.416-0.461,0.672c-0.109,0.26-0.164,0.539-0.164,0.836
		c0,0.291,0.055,0.568,0.164,0.828c0.114,0.26,0.27,0.486,0.461,0.68c0.192,0.194,0.417,0.345,0.672,0.453
		C152.189,28.336,152.469,28.391,152.766,28.391z"/>
</g>
<g>
	<path stroke="#000000" stroke-width="0.25" stroke-miterlimit="10" d="M221.126,21.686c-0.123,0-0.228-0.041-0.312-0.127
		c-0.086-0.084-0.127-0.188-0.127-0.311c0-0.115,0.041-0.217,0.127-0.305c0.084-0.088,0.188-0.133,0.312-0.133h1.58
		c0.101,0,0.188,0.03,0.265,0.092c0.077,0.062,0.131,0.139,0.161,0.23l1.775,6.443h4.862l1.613-3.711H226
		c-0.123,0-0.229-0.042-0.312-0.127c-0.084-0.084-0.127-0.184-0.127-0.301c0-0.123,0.043-0.227,0.127-0.311
		c0.086-0.085,0.189-0.127,0.312-0.127h6.053c0.076,0,0.147,0.018,0.213,0.052c0.066,0.034,0.117,0.083,0.155,0.144
		c0.038,0.062,0.062,0.129,0.069,0.203c0.007,0.072-0.004,0.144-0.035,0.213l-1.993,4.588c-0.04,0.076-0.093,0.138-0.163,0.184
		c-0.068,0.047-0.146,0.069-0.24,0.069h-5.477c-0.1,0-0.189-0.029-0.27-0.087c-0.082-0.059-0.137-0.137-0.156-0.236l-1.787-6.443
		L221.126,21.686L221.126,21.686z M224.169,31.529c-0.276,0-0.511-0.098-0.702-0.293c-0.191-0.196-0.289-0.428-0.289-0.697
		c0-0.277,0.098-0.512,0.289-0.703s0.426-0.288,0.702-0.288c0.271,0,0.502,0.097,0.698,0.288c0.195,0.191,0.294,0.426,0.294,0.703
		c0,0.27-0.099,0.501-0.294,0.697C224.671,31.432,224.438,31.529,224.169,31.529z M230.348,31.529c-0.254,0-0.475-0.09-0.662-0.271
		c-0.188-0.181-0.295-0.396-0.314-0.65c-0.018-0.275,0.062-0.52,0.238-0.728c0.18-0.208,0.406-0.318,0.683-0.334
		c0.271-0.015,0.509,0.064,0.716,0.242c0.208,0.177,0.318,0.402,0.334,0.68c0.012,0.132-0.008,0.259-0.047,0.382
		c-0.038,0.123-0.104,0.233-0.191,0.334c-0.086,0.102-0.188,0.181-0.303,0.235c-0.113,0.06-0.236,0.095-0.365,0.108h-0.043h-0.043
		v0.002H230.348z"/>
</g>
<g>
	<path stroke="#000000" stroke-width="0.5" stroke-miterlimit="10" d="M212.969,25.902v5.325H205.1v-5.325h1.377v-2.346
		c0-0.18,0.02-0.352,0.051-0.515c0.033-0.163,0.086-0.321,0.16-0.474c0.065-0.153,0.146-0.299,0.238-0.435
		c0.096-0.137,0.197-0.262,0.311-0.375c0.113-0.112,0.238-0.216,0.375-0.31c0.138-0.094,0.281-0.174,0.437-0.24
		c0.153-0.073,0.312-0.127,0.476-0.16c0.164-0.033,0.336-0.05,0.516-0.05s0.352,0.017,0.516,0.05
		c0.162,0.033,0.319,0.086,0.473,0.16c0.154,0.066,0.303,0.146,0.438,0.24c0.139,0.093,0.264,0.195,0.375,0.31
		c0.113,0.113,0.217,0.238,0.312,0.375c0.094,0.136,0.172,0.281,0.238,0.435c0.072,0.152,0.125,0.312,0.158,0.474
		c0.034,0.163,0.051,0.335,0.051,0.515v2.346H212.969z M212.578,26.323h-7.092v4.514h7.092V26.323z M206.866,25.902h4.334v-2.346
		c0-0.146-0.015-0.287-0.046-0.424c-0.029-0.137-0.074-0.271-0.133-0.404c-0.058-0.133-0.121-0.258-0.201-0.369
		c-0.08-0.113-0.17-0.221-0.271-0.32c-0.093-0.1-0.193-0.189-0.309-0.27c-0.116-0.081-0.236-0.149-0.37-0.209
		c-0.136-0.054-0.271-0.096-0.409-0.125c-0.143-0.031-0.281-0.045-0.43-0.045c-0.146,0-0.289,0.014-0.432,0.045
		c-0.141,0.028-0.274,0.07-0.408,0.125c-0.135,0.06-0.256,0.129-0.368,0.209c-0.114,0.08-0.218,0.17-0.312,0.27
		c-0.102,0.1-0.188,0.207-0.271,0.32c-0.079,0.111-0.146,0.236-0.199,0.369c-0.061,0.127-0.104,0.26-0.134,0.398
		c-0.031,0.141-0.048,0.283-0.048,0.43v2.346H206.866z"/>
</g>
<rect y="42" width="245" height="18"/>
<rect x="11.609" y="50" fill="#FFFFFF" width="12" height="2"/>
<rect x="31.609" y="50" fill="#FFFFFF" width="12" height="2"/>
<rect x="51.609" y="50" fill="#FFFFFF" width="12" height="2"/>
<rect x="71.609" y="50" fill="#FFFFFF" width="12" height="2"/>
<rect x="91.609" y="50" fill="#FFFFFF" width="12" height="2"/>
<rect x="111.609" y="50" fill="#FFFFFF" width="12" height="2"/>
<rect x="131.609" y="50" fill="#FFFFFF" width="12" height="2"/>
<rect x="151.609" y="50" fill="#FFFFFF" width="12" height="2"/>
</svg>
