<?xml version="1.0" encoding="utf-8"?>
<!-- Generator: Adobe Illustrator 16.0.0, SVG Export Plug-In . SVG Version: 6.00 Build 0)  -->
<!DOCTYPE svg PUBLIC "-//W3C//DTD SVG 1.1//EN" "http://www.w3.org/Graphics/SVG/1.1/DTD/svg11.dtd">
<svg version="1.1" id="Layer_1" xmlns="http://www.w3.org/2000/svg" xmlns:xlink="http://www.w3.org/1999/xlink" x="0px" y="0px"
	 width="245px" height="60px" viewBox="0 0 245 60" enable-background="new 0 0 245 60" xml:space="preserve">
<rect x="0.5" y="0.5" fill="#FFFFFF" stroke="#000000" stroke-miterlimit="10" width="244" height="40"/>
<rect x="1" y="1" display="none" fill="#FFFFFF" width="243" height="20"/>
<g>
	<path stroke="#000000" stroke-width="0.25" stroke-miterlimit="10" d="M105.833,16.663h1.641v7.055h2.391v1.564h-4.031
		L105.833,16.663L105.833,16.663z"/>
	<path stroke="#000000" stroke-width="0.25" stroke-miterlimit="10" d="M115.182,16.446c1.22,0,2.268,0.441,3.146,1.324
		c0.877,0.883,1.316,1.959,1.316,3.229c0,1.258-0.434,2.322-1.299,3.193c-0.866,0.871-1.916,1.307-3.151,1.307
		c-1.294,0-2.369-0.447-3.225-1.342c-0.856-0.895-1.284-1.957-1.284-3.188c0-0.824,0.199-1.582,0.598-2.273
		c0.398-0.691,0.947-1.239,1.645-1.644C113.626,16.647,114.376,16.446,115.182,16.446z M115.164,18.051
		c-0.798,0-1.468,0.277-2.012,0.832c-0.544,0.555-0.815,1.26-0.815,2.115c0,0.953,0.342,1.707,1.026,2.262
		c0.532,0.434,1.142,0.65,1.83,0.65c0.778,0,1.441-0.281,1.988-0.844c0.547-0.563,0.821-1.256,0.821-2.08
		c0-0.82-0.276-1.515-0.827-2.083C116.624,18.335,115.954,18.051,115.164,18.051z"/>
	<path stroke="#000000" stroke-width="0.25" stroke-miterlimit="10" d="M129.146,18.069l-1.154,1.143
		c-0.73-0.773-1.583-1.16-2.559-1.16c-0.85,0-1.561,0.281-2.133,0.844c-0.573,0.562-0.859,1.246-0.859,2.051
		c0,0.832,0.297,1.537,0.892,2.115c0.598,0.578,1.327,0.867,2.2,0.867c0.563,0,1.045-0.119,1.437-0.357
		c0.389-0.238,0.7-0.611,0.938-1.119h-2.496v-1.541h4.336l0.015,0.363c0,0.754-0.195,1.469-0.589,2.145
		c-0.391,0.676-0.896,1.191-1.518,1.547c-0.622,0.356-1.353,0.533-2.188,0.533c-0.895,0-1.691-0.194-2.394-0.583
		c-0.703-0.389-1.256-0.942-1.664-1.661c-0.408-0.719-0.612-1.494-0.612-2.326c0-1.141,0.377-2.133,1.131-2.977
		c0.895-1.004,2.058-1.506,3.492-1.506c0.75,0,1.451,0.139,2.104,0.416C128.081,17.096,128.62,17.499,129.146,18.069z"/>
	<path stroke="#000000" stroke-width="0.25" stroke-miterlimit="10" d="M135.338,16.446c1.221,0,2.27,0.441,3.146,1.324
		c0.875,0.883,1.313,1.959,1.313,3.229c0,1.258-0.435,2.322-1.299,3.193c-0.863,0.871-1.916,1.307-3.149,1.307
		c-1.293,0-2.367-0.447-3.227-1.342c-0.855-0.895-1.284-1.957-1.284-3.188c0-0.824,0.199-1.582,0.601-2.273
		c0.396-0.691,0.947-1.239,1.645-1.644C133.781,16.648,134.532,16.446,135.338,16.446z M135.32,18.051
		c-0.799,0-1.469,0.277-2.012,0.832c-0.545,0.555-0.815,1.26-0.815,2.115c0,0.953,0.342,1.707,1.026,2.262
		c0.529,0.434,1.142,0.65,1.83,0.65c0.775,0,1.438-0.281,1.985-0.844s0.821-1.256,0.821-2.08c0-0.82-0.275-1.515-0.827-2.083
		C136.779,18.335,136.109,18.051,135.32,18.051z"/>
</g>
<g>
	<path stroke="#000000" stroke-width="0.25" stroke-miterlimit="10" d="M232.334,22.908L235,25.574l-0.719,0.729l-2.666-2.904
		c-0.373,0.299-0.785,0.533-1.232,0.707s-0.926,0.26-1.432,0.26c-0.604,0-1.17-0.113-1.697-0.344
		c-0.527-0.221-0.988-0.529-1.385-0.926c-0.395-0.395-0.707-0.855-0.936-1.385c-0.23-0.527-0.347-1.096-0.347-1.707
		c0-0.611,0.113-1.18,0.347-1.707c0.229-0.533,0.541-0.996,0.936-1.391c0.396-0.393,0.857-0.699,1.385-0.92
		c0.527-0.23,1.094-0.344,1.697-0.344c0.598,0,1.16,0.113,1.686,0.344c0.527,0.221,0.99,0.527,1.385,0.92
		c0.396,0.395,0.709,0.857,0.938,1.391c0.229,0.527,0.345,1.096,0.345,1.707c0,0.529-0.084,1.049-0.257,1.566
		C232.877,22.087,232.641,22.533,232.334,22.908z M228.951,23.398c0.459,0,0.895-0.092,1.312-0.271
		c0.405-0.174,0.768-0.414,1.073-0.719c0.31-0.305,0.556-0.666,0.733-1.082c0.175-0.408,0.261-0.852,0.261-1.322
		c0-0.47-0.086-0.916-0.261-1.332c-0.184-0.408-0.428-0.768-0.733-1.072c-0.31-0.304-0.668-0.549-1.073-0.729
		c-0.418-0.176-0.854-0.26-1.312-0.26c-0.465,0-0.906,0.084-1.322,0.26c-0.41,0.18-0.77,0.424-1.078,0.729
		c-0.307,0.305-0.549,0.664-0.723,1.072c-0.182,0.416-0.271,0.861-0.271,1.332c0,0.471,0.09,0.914,0.271,1.322
		c0.174,0.416,0.416,0.777,0.723,1.082c0.309,0.305,0.668,0.545,1.078,0.719C228.045,23.306,228.486,23.398,228.951,23.398z"/>
</g>
<g>
	<rect x="9" y="15.75" width="12" height="1.5"/>
	<rect x="9" y="19.75" width="12" height="1.5"/>
	<rect x="9" y="23.75" width="12" height="1.5"/>
</g>
</svg>
