<?xml version="1.0" encoding="utf-8"?>
<!-- Generator: Adobe Illustrator 16.0.0, SVG Export Plug-In . SVG Version: 6.00 Build 0)  -->
<!DOCTYPE svg PUBLIC "-//W3C//DTD SVG 1.1//EN" "http://www.w3.org/Graphics/SVG/1.1/DTD/svg11.dtd">
<svg version="1.1" id="Layer_1" xmlns="http://www.w3.org/2000/svg" xmlns:xlink="http://www.w3.org/1999/xlink" x="0px" y="0px"
	 width="245px" height="60px" viewBox="0 0 245 60" enable-background="new 0 0 245 60" xml:space="preserve">
<rect x="0.5" y="0.5" fill="#FFFFFF" stroke="#000000" stroke-miterlimit="10" width="244" height="59"/>
<rect x="1" y="1" width="243" height="20"/>
<g>
	<path stroke="#000000" stroke-width="0.25" stroke-miterlimit="10" d="M105.443,35.337h1.641v7.056h2.391v1.563h-4.031
		L105.443,35.337L105.443,35.337z"/>
	<path stroke="#000000" stroke-width="0.25" stroke-miterlimit="10" d="M114.792,35.12c1.22,0,2.268,0.44,3.146,1.323
		c0.877,0.884,1.316,1.959,1.316,3.229c0,1.259-0.434,2.322-1.299,3.193c-0.866,0.87-1.916,1.307-3.151,1.307
		c-1.294,0-2.369-0.446-3.225-1.342s-1.284-1.957-1.284-3.188c0-0.824,0.199-1.582,0.598-2.272c0.398-0.69,0.947-1.239,1.645-1.644
		C113.236,35.32,113.987,35.12,114.792,35.12z M114.774,36.727c-0.798,0-1.468,0.276-2.012,0.832
		c-0.544,0.555-0.815,1.26-0.815,2.114c0,0.953,0.342,1.707,1.026,2.263c0.532,0.434,1.142,0.649,1.83,0.649
		c0.778,0,1.441-0.28,1.988-0.844s0.821-1.257,0.821-2.08c0-0.82-0.276-1.515-0.827-2.083
		C116.234,37.01,115.564,36.727,114.774,36.727z"/>
	<path stroke="#000000" stroke-width="0.25" stroke-miterlimit="10" d="M128.758,36.743l-1.154,1.143
		c-0.731-0.772-1.584-1.159-2.559-1.159c-0.848,0-1.559,0.28-2.131,0.844c-0.573,0.562-0.859,1.246-0.859,2.051
		c0,0.832,0.297,1.537,0.892,2.115c0.595,0.578,1.327,0.867,2.2,0.867c0.566,0,1.045-0.119,1.435-0.357s0.703-0.611,0.94-1.119
		h-2.496v-1.541h4.336l0.013,0.363c0,0.754-0.194,1.469-0.586,2.145s-0.896,1.191-1.519,1.547c-0.621,0.356-1.35,0.533-2.186,0.533
		c-0.895,0-1.691-0.193-2.394-0.583c-0.702-0.389-1.256-0.942-1.664-1.661c-0.408-0.719-0.612-1.494-0.612-2.326
		c0-1.141,0.377-2.133,1.131-2.977c0.895-1.004,2.059-1.506,3.492-1.506c0.75,0,1.451,0.139,2.104,0.416
		C127.691,35.771,128.23,36.173,128.758,36.743z"/>
	<path stroke="#000000" stroke-width="0.25" stroke-miterlimit="10" d="M134.948,35.12c1.22,0,2.269,0.44,3.146,1.323
		c0.877,0.884,1.316,1.959,1.316,3.229c0,1.259-0.434,2.322-1.299,3.193c-0.865,0.87-1.916,1.307-3.151,1.307
		c-1.294,0-2.368-0.446-3.226-1.342c-0.856-0.896-1.283-1.957-1.283-3.188c0-0.824,0.199-1.582,0.598-2.272
		c0.399-0.69,0.947-1.239,1.645-1.644C133.393,35.322,134.143,35.12,134.948,35.12z M134.932,36.727
		c-0.799,0-1.469,0.276-2.013,0.832c-0.544,0.555-0.815,1.26-0.815,2.114c0,0.953,0.342,1.707,1.026,2.263
		c0.532,0.434,1.142,0.649,1.83,0.649c0.778,0,1.44-0.28,1.988-0.844s0.821-1.257,0.821-2.08c0-0.82-0.275-1.515-0.828-2.083
		C136.391,37.01,135.721,36.727,134.932,36.727z"/>
</g>
<rect x="12" y="38" width="12" height="3"/>
<rect x="32" y="38" width="12" height="3"/>
<rect x="52" y="38" width="12" height="3"/>
<g>
	<path stroke="#000000" stroke-width="0.25" stroke-miterlimit="10" d="M204.46,35.02c-0.123,0-0.228-0.041-0.312-0.127
		c-0.086-0.084-0.127-0.188-0.127-0.311c0-0.115,0.041-0.218,0.127-0.307c0.084-0.088,0.188-0.131,0.312-0.131h1.58
		c0.101,0,0.188,0.028,0.265,0.092c0.076,0.061,0.131,0.138,0.161,0.229l1.775,6.443h4.862l1.615-3.712h-5.384
		c-0.123,0-0.228-0.043-0.312-0.127s-0.127-0.186-0.127-0.301c0-0.123,0.043-0.227,0.127-0.311c0.084-0.085,0.188-0.127,0.312-0.127
		h6.054c0.075,0,0.146,0.018,0.213,0.052c0.064,0.034,0.116,0.083,0.154,0.144c0.038,0.062,0.061,0.13,0.069,0.203
		c0.007,0.072-0.003,0.144-0.035,0.213l-1.993,4.589c-0.04,0.075-0.093,0.138-0.163,0.184c-0.067,0.046-0.147,0.069-0.241,0.069
		h-5.476c-0.101,0-0.19-0.028-0.271-0.087c-0.082-0.058-0.133-0.138-0.155-0.236l-1.787-6.442H204.46L204.46,35.02z M207.503,44.863
		c-0.276,0-0.511-0.098-0.702-0.295c-0.191-0.195-0.289-0.428-0.289-0.696c0-0.276,0.098-0.511,0.289-0.703
		c0.191-0.19,0.426-0.288,0.702-0.288c0.271,0,0.502,0.098,0.698,0.288c0.195,0.192,0.294,0.427,0.294,0.703
		c0,0.269-0.099,0.501-0.294,0.696C208.005,44.766,207.771,44.863,207.503,44.863z M213.682,44.863c-0.254,0-0.475-0.09-0.662-0.271
		c-0.188-0.181-0.295-0.396-0.316-0.65c-0.016-0.277,0.064-0.52,0.24-0.728c0.178-0.207,0.406-0.317,0.681-0.334
		c0.271-0.016,0.509,0.065,0.716,0.242c0.208,0.177,0.318,0.403,0.334,0.68c0.01,0.132-0.008,0.259-0.047,0.382
		c-0.038,0.123-0.104,0.233-0.193,0.334c-0.086,0.1-0.187,0.178-0.301,0.235c-0.115,0.058-0.238,0.095-0.367,0.108h-0.043h-0.041
		V44.863z"/>
</g>
<g>
	<path stroke="#000000" stroke-width="0.5" stroke-miterlimit="10" d="M197.303,39.047v5.324h-7.869v-5.324h1.377v-2.346
		c0-0.18,0.018-0.352,0.051-0.516c0.033-0.162,0.086-0.32,0.16-0.474c0.065-0.153,0.146-0.299,0.238-0.435
		c0.096-0.137,0.197-0.262,0.311-0.375s0.238-0.217,0.375-0.311c0.136-0.094,0.281-0.173,0.435-0.24
		c0.153-0.072,0.312-0.127,0.474-0.158c0.164-0.033,0.336-0.051,0.516-0.051s0.352,0.018,0.515,0.051
		c0.163,0.031,0.32,0.086,0.474,0.158c0.154,0.067,0.301,0.146,0.436,0.24c0.137,0.094,0.262,0.196,0.375,0.311
		c0.113,0.113,0.216,0.238,0.311,0.375c0.094,0.136,0.172,0.279,0.239,0.435c0.073,0.152,0.125,0.312,0.159,0.474
		c0.034,0.164,0.05,0.336,0.05,0.516v2.346H197.303z M196.912,39.467h-7.092v4.514h7.092V39.467z M191.2,39.047h4.334v-2.346
		c0-0.146-0.015-0.287-0.046-0.424c-0.029-0.139-0.074-0.272-0.133-0.405c-0.056-0.133-0.121-0.257-0.201-0.369
		s-0.17-0.22-0.271-0.319c-0.093-0.101-0.194-0.188-0.309-0.271c-0.114-0.079-0.236-0.149-0.37-0.21
		c-0.135-0.053-0.27-0.096-0.409-0.124c-0.142-0.03-0.282-0.046-0.43-0.046c-0.146,0-0.289,0.016-0.431,0.046
		c-0.14,0.028-0.275,0.071-0.408,0.124c-0.135,0.061-0.256,0.131-0.369,0.21c-0.114,0.081-0.217,0.17-0.311,0.271
		c-0.101,0.101-0.189,0.207-0.271,0.319c-0.079,0.112-0.146,0.236-0.199,0.369c-0.06,0.127-0.104,0.26-0.134,0.399
		c-0.031,0.141-0.046,0.283-0.046,0.43v2.346H191.2z"/>
</g>
<g>
	<path stroke="#000000" stroke-width="0.25" stroke-miterlimit="10" d="M230.575,41.41l2.665,2.666l-0.719,0.729l-2.666-2.904
		c-0.373,0.3-0.785,0.533-1.232,0.707c-0.447,0.175-0.925,0.261-1.432,0.261c-0.604,0-1.17-0.113-1.696-0.345
		c-0.527-0.221-0.989-0.528-1.386-0.926c-0.396-0.395-0.707-0.854-0.937-1.385c-0.229-0.527-0.344-1.096-0.344-1.707
		s0.114-1.18,0.344-1.707c0.229-0.533,0.541-0.996,0.937-1.391c0.396-0.393,0.857-0.699,1.386-0.92
		c0.526-0.23,1.093-0.344,1.696-0.344c0.598,0,1.16,0.112,1.687,0.344c0.526,0.221,0.989,0.527,1.386,0.92
		c0.396,0.395,0.707,0.857,0.938,1.391c0.229,0.527,0.343,1.096,0.343,1.707c0,0.529-0.084,1.049-0.255,1.566
		S230.881,41.035,230.575,41.41z M227.191,41.9c0.459,0,0.896-0.092,1.312-0.271c0.409-0.174,0.77-0.414,1.077-0.719
		s0.553-0.666,0.733-1.082c0.174-0.408,0.261-0.852,0.261-1.322c0-0.47-0.087-0.916-0.261-1.332
		c-0.182-0.408-0.426-0.768-0.733-1.072c-0.308-0.304-0.668-0.549-1.077-0.729c-0.417-0.176-0.854-0.26-1.312-0.26
		c-0.465,0-0.905,0.084-1.321,0.26c-0.41,0.18-0.771,0.424-1.078,0.729c-0.308,0.306-0.55,0.664-0.724,1.072
		c-0.182,0.416-0.271,0.861-0.271,1.332s0.091,0.914,0.271,1.322c0.174,0.416,0.416,0.777,0.724,1.082
		c0.31,0.305,0.668,0.545,1.078,0.719C226.286,41.809,226.729,41.9,227.191,41.9z"/>
</g>
</svg>
