<?xml version="1.0" encoding="utf-8"?>
<!-- Generator: Adobe Illustrator 16.0.0, SVG Export Plug-In . SVG Version: 6.00 Build 0)  -->
<!DOCTYPE svg PUBLIC "-//W3C//DTD SVG 1.1//EN" "http://www.w3.org/Graphics/SVG/1.1/DTD/svg11.dtd">
<svg version="1.1" id="Layer_1" xmlns="http://www.w3.org/2000/svg" xmlns:xlink="http://www.w3.org/1999/xlink" x="0px" y="0px"
	 width="245px" height="60px" viewBox="0 0 245 60" enable-background="new 0 0 245 60" xml:space="preserve">
<rect x="1" y="1" fill="#FFFFFF" stroke="#000000" stroke-width="2" stroke-miterlimit="10" width="243" height="38"/>
<rect x="1" y="1" display="none" fill="#FFFFFF" width="243" height="20"/>
<g>
	<path stroke="#000000" stroke-width="0.25" stroke-miterlimit="10" d="M12,15.337h1.641v7.055h2.391v1.564H12V15.337z"/>
	<path stroke="#000000" stroke-width="0.25" stroke-miterlimit="10" d="M21.349,15.12c1.22,0,2.268,0.441,3.146,1.324
		c0.877,0.883,1.316,1.959,1.316,3.229c0,1.258-0.434,2.322-1.299,3.193c-0.866,0.871-1.916,1.307-3.151,1.307
		c-1.294,0-2.369-0.447-3.225-1.342c-0.856-0.895-1.284-1.957-1.284-3.188c0-0.824,0.199-1.582,0.598-2.273
		c0.398-0.691,0.947-1.239,1.645-1.644C19.793,15.321,20.543,15.12,21.349,15.12z M21.331,16.726c-0.798,0-1.468,0.277-2.012,0.832
		c-0.544,0.555-0.815,1.26-0.815,2.115c0,0.953,0.342,1.707,1.026,2.262c0.532,0.434,1.142,0.65,1.83,0.65
		c0.778,0,1.441-0.281,1.988-0.844c0.547-0.563,0.821-1.256,0.821-2.08c0-0.82-0.276-1.515-0.827-2.083
		C22.791,17.01,22.121,16.726,21.331,16.726z"/>
	<path stroke="#000000" stroke-width="0.25" stroke-miterlimit="10" d="M35.314,16.743l-1.155,1.143
		c-0.731-0.773-1.583-1.16-2.558-1.16c-0.848,0-1.559,0.281-2.131,0.844c-0.573,0.562-0.859,1.246-0.859,2.051
		c0,0.832,0.297,1.537,0.892,2.115c0.595,0.578,1.327,0.867,2.2,0.867c0.566,0,1.045-0.119,1.434-0.357
		c0.389-0.238,0.703-0.611,0.941-1.119h-2.496v-1.541h4.336l0.012,0.363c0,0.754-0.195,1.469-0.586,2.145
		c-0.391,0.676-0.896,1.191-1.518,1.547s-1.35,0.533-2.186,0.533c-0.895,0-1.692-0.194-2.394-0.583
		c-0.702-0.389-1.256-0.942-1.664-1.661c-0.408-0.719-0.612-1.494-0.612-2.326c0-1.141,0.377-2.133,1.131-2.977
		c0.895-1.004,2.059-1.506,3.492-1.506c0.75,0,1.451,0.139,2.104,0.416C34.248,15.771,34.787,16.173,35.314,16.743z"/>
	<path stroke="#000000" stroke-width="0.25" stroke-miterlimit="10" d="M41.505,15.12c1.22,0,2.269,0.441,3.146,1.324
		c0.877,0.883,1.316,1.959,1.316,3.229c0,1.258-0.434,2.322-1.299,3.193c-0.865,0.871-1.916,1.307-3.151,1.307
		c-1.294,0-2.368-0.447-3.225-1.342s-1.284-1.957-1.284-3.188c0-0.824,0.199-1.582,0.598-2.273s0.947-1.239,1.645-1.644
		C39.948,15.322,40.699,15.12,41.505,15.12z M41.487,16.726c-0.798,0-1.468,0.277-2.012,0.832c-0.544,0.555-0.815,1.26-0.815,2.115
		c0,0.953,0.342,1.707,1.026,2.262c0.532,0.434,1.142,0.65,1.83,0.65c0.778,0,1.44-0.281,1.988-0.844s0.821-1.256,0.821-2.08
		c0-0.82-0.275-1.515-0.827-2.083C42.946,17.01,42.277,16.726,41.487,16.726z"/>
</g>
<rect x="103" y="18" width="12" height="3"/>
<rect x="123" y="18" width="12" height="3"/>
<rect x="143" y="18" width="12" height="3"/>
<rect x="163" y="18" width="12" height="3"/>
<rect x="83" y="18" width="12" height="3"/>
<g>
	<path stroke="#000000" stroke-width="0.75" stroke-miterlimit="10" d="M231,19.999v7.441h-11v-7.441h1.925v-3.28
		c0-0.251,0.023-0.493,0.071-0.721c0.046-0.226,0.12-0.448,0.225-0.663c0.089-0.213,0.203-0.417,0.333-0.608
		c0.133-0.192,0.273-0.367,0.433-0.524c0.159-0.158,0.333-0.304,0.525-0.435c0.19-0.132,0.392-0.242,0.609-0.336
		c0.211-0.101,0.435-0.177,0.659-0.22c0.229-0.047,0.471-0.071,0.722-0.071c0.254,0,0.493,0.024,0.72,0.071
		c0.23,0.043,0.448,0.12,0.664,0.22c0.216,0.095,0.42,0.205,0.609,0.336c0.189,0.13,0.365,0.273,0.522,0.435
		c0.159,0.157,0.305,0.332,0.436,0.524c0.132,0.19,0.24,0.39,0.335,0.608c0.103,0.212,0.175,0.437,0.222,0.663
		c0.048,0.228,0.07,0.469,0.07,0.721v3.28H231z M230.452,20.585h-9.913v6.312h9.913V20.585z M222.469,19.999h6.059v-3.28
		c0-0.204-0.022-0.401-0.064-0.592c-0.041-0.195-0.104-0.38-0.188-0.566c-0.076-0.186-0.167-0.36-0.279-0.516
		c-0.111-0.157-0.237-0.307-0.378-0.446c-0.131-0.14-0.272-0.262-0.433-0.377c-0.159-0.111-0.329-0.209-0.517-0.294
		c-0.189-0.074-0.377-0.134-0.573-0.172c-0.197-0.042-0.394-0.065-0.602-0.065c-0.201,0-0.402,0.022-0.602,0.065
		c-0.196,0.039-0.383,0.098-0.57,0.172c-0.188,0.085-0.357,0.184-0.516,0.294c-0.16,0.113-0.303,0.237-0.434,0.377
		c-0.142,0.141-0.266,0.29-0.379,0.446c-0.112,0.156-0.207,0.331-0.278,0.516c-0.085,0.177-0.146,0.364-0.188,0.558
		c-0.044,0.197-0.064,0.396-0.064,0.601v3.28H222.469z"/>
</g>
</svg>
