<?xml version="1.0" encoding="utf-8"?>
<!-- Generator: Adobe Illustrator 16.0.0, SVG Export Plug-In . SVG Version: 6.00 Build 0)  -->
<!DOCTYPE svg PUBLIC "-//W3C//DTD SVG 1.1//EN" "http://www.w3.org/Graphics/SVG/1.1/DTD/svg11.dtd">
<svg version="1.1" id="Layer_1" xmlns="http://www.w3.org/2000/svg" xmlns:xlink="http://www.w3.org/1999/xlink" x="0px" y="0px"
	 width="245px" height="60px" viewBox="0 0 245 60" enable-background="new 0 0 245 60" xml:space="preserve">
<rect x="1" y="1" fill="#FFFFFF" stroke="#000000" stroke-width="2" stroke-miterlimit="10" width="243" height="40"/>
<rect x="1" y="1" display="none" fill="#FFFFFF" width="243" height="20"/>
<g>
	<path stroke="#000000" stroke-width="0.25" stroke-miterlimit="10" d="M9,16.663h1.641v7.055h2.391v1.564H9.001L9,16.663L9,16.663z
		"/>
	<path stroke="#000000" stroke-width="0.25" stroke-miterlimit="10" d="M18.349,16.446c1.22,0,2.268,0.441,3.146,1.324
		c0.877,0.883,1.316,1.959,1.316,3.229c0,1.258-0.434,2.322-1.299,3.193c-0.866,0.871-1.916,1.307-3.151,1.307
		c-1.294,0-2.369-0.447-3.225-1.342c-0.856-0.895-1.284-1.957-1.284-3.188c0-0.824,0.199-1.582,0.598-2.273
		c0.398-0.691,0.947-1.239,1.645-1.644C16.793,16.647,17.543,16.446,18.349,16.446z M18.331,18.051
		c-0.798,0-1.468,0.277-2.012,0.832c-0.544,0.555-0.815,1.26-0.815,2.115c0,0.953,0.342,1.707,1.026,2.262
		c0.532,0.434,1.142,0.65,1.83,0.65c0.778,0,1.441-0.281,1.988-0.844c0.547-0.563,0.821-1.256,0.821-2.08
		c0-0.82-0.276-1.515-0.827-2.083C19.791,18.335,19.121,18.051,18.331,18.051z"/>
	<path stroke="#000000" stroke-width="0.25" stroke-miterlimit="10" d="M32.313,18.069l-1.154,1.143
		c-0.73-0.773-1.583-1.16-2.559-1.16c-0.848,0-1.559,0.281-2.131,0.844c-0.573,0.562-0.859,1.246-0.859,2.051
		c0,0.832,0.297,1.537,0.892,2.115c0.596,0.578,1.327,0.867,2.2,0.867c0.565,0,1.045-0.119,1.435-0.357
		c0.389-0.238,0.702-0.611,0.94-1.119h-2.496v-1.541h4.336l0.013,0.363c0,0.754-0.195,1.469-0.587,2.145
		c-0.391,0.676-0.896,1.191-1.518,1.547c-0.622,0.356-1.351,0.533-2.187,0.533c-0.895,0-1.691-0.194-2.394-0.583
		s-1.256-0.942-1.664-1.661c-0.408-0.719-0.612-1.494-0.612-2.326c0-1.141,0.377-2.133,1.131-2.977
		c0.895-1.004,2.059-1.506,3.492-1.506c0.75,0,1.451,0.139,2.104,0.416C31.248,17.096,31.787,17.499,32.313,18.069z"/>
	<path stroke="#000000" stroke-width="0.25" stroke-miterlimit="10" d="M38.505,16.446c1.221,0,2.27,0.441,3.146,1.324
		s1.315,1.959,1.315,3.229c0,1.258-0.434,2.322-1.299,3.193c-0.864,0.871-1.916,1.307-3.151,1.307c-1.293,0-2.367-0.447-3.225-1.342
		c-0.857-0.895-1.284-1.957-1.284-3.188c0-0.824,0.199-1.582,0.599-2.273c0.398-0.691,0.947-1.239,1.645-1.644
		C36.948,16.648,37.699,16.446,38.505,16.446z M38.487,18.051c-0.799,0-1.469,0.277-2.012,0.832
		c-0.545,0.555-0.815,1.26-0.815,2.115c0,0.953,0.342,1.707,1.026,2.262c0.531,0.434,1.142,0.65,1.83,0.65
		c0.777,0,1.439-0.281,1.987-0.844s0.821-1.256,0.821-2.08c0-0.82-0.275-1.515-0.827-2.083
		C39.946,18.335,39.276,18.051,38.487,18.051z"/>
</g>
<g>
	<rect x="223" y="15.75" width="12" height="1.5"/>
	<rect x="223" y="19.75" width="12" height="1.5"/>
	<rect x="223" y="23.75" width="12" height="1.5"/>
</g>
<g>
	<path stroke="#000000" stroke-width="0.25" stroke-miterlimit="10" d="M210.334,22.908L213,25.574l-0.719,0.729l-2.666-2.904
		c-0.373,0.299-0.785,0.533-1.232,0.707s-0.926,0.26-1.432,0.26c-0.604,0-1.17-0.113-1.697-0.344
		c-0.527-0.221-0.988-0.529-1.385-0.926c-0.395-0.395-0.707-0.855-0.936-1.385c-0.23-0.527-0.345-1.096-0.345-1.707
		c0-0.611,0.113-1.18,0.345-1.707c0.229-0.533,0.541-0.996,0.936-1.391c0.396-0.393,0.857-0.699,1.385-0.92
		c0.527-0.23,1.094-0.344,1.697-0.344c0.598,0,1.16,0.113,1.686,0.344c0.527,0.221,0.99,0.527,1.385,0.92
		c0.396,0.395,0.709,0.857,0.938,1.391c0.229,0.527,0.345,1.096,0.345,1.707c0,0.529-0.084,1.049-0.257,1.566
		C210.877,22.087,210.641,22.533,210.334,22.908z M206.951,23.398c0.459,0,0.895-0.092,1.312-0.271
		c0.407-0.174,0.768-0.414,1.075-0.719c0.308-0.305,0.554-0.666,0.734-1.082c0.174-0.408,0.26-0.852,0.26-1.322
		c0-0.47-0.086-0.916-0.26-1.332c-0.183-0.408-0.427-0.768-0.734-1.072c-0.308-0.304-0.668-0.549-1.075-0.729
		c-0.418-0.176-0.854-0.26-1.312-0.26c-0.465,0-0.906,0.084-1.322,0.26c-0.41,0.18-0.77,0.424-1.078,0.729
		c-0.307,0.305-0.549,0.664-0.723,1.072c-0.182,0.416-0.271,0.861-0.271,1.332c0,0.471,0.09,0.914,0.271,1.322
		c0.174,0.416,0.416,0.777,0.723,1.082c0.309,0.305,0.668,0.545,1.078,0.719C206.045,23.306,206.486,23.398,206.951,23.398z"/>
</g>
</svg>
