<?xml version="1.0" encoding="utf-8"?>
<!-- Generator: Adobe Illustrator 16.0.0, SVG Export Plug-In . SVG Version: 6.00 Build 0)  -->
<!DOCTYPE svg PUBLIC "-//W3C//DTD SVG 1.1//EN" "http://www.w3.org/Graphics/SVG/1.1/DTD/svg11.dtd">
<svg version="1.1" id="Layer_1" xmlns="http://www.w3.org/2000/svg" xmlns:xlink="http://www.w3.org/1999/xlink" x="0px" y="0px"
	 width="245px" height="60px" viewBox="0 0 245 60" enable-background="new 0 0 245 60" xml:space="preserve">
<rect x="0.5" y="0.5" fill="#FFFFFF" stroke="#000000" stroke-miterlimit="10" width="244" height="59"/>
<rect x="1" y="1" width="243" height="20"/>
<g>
	<path stroke="#000000" stroke-width="0.25" stroke-miterlimit="10" d="M11.609,35.337h1.641v7.056h2.391v1.563H11.61L11.609,35.337
		L11.609,35.337z"/>
	<path stroke="#000000" stroke-width="0.25" stroke-miterlimit="10" d="M20.958,35.12c1.22,0,2.268,0.44,3.146,1.323
		c0.878,0.884,1.316,1.959,1.316,3.229c0,1.259-0.433,2.322-1.299,3.193c-0.866,0.87-1.916,1.307-3.151,1.307
		c-1.294,0-2.369-0.446-3.225-1.342s-1.284-1.957-1.284-3.188c0-0.824,0.199-1.582,0.598-2.272c0.398-0.69,0.947-1.239,1.645-1.644
		C19.402,35.32,20.153,35.12,20.958,35.12z M20.94,36.727c-0.798,0-1.468,0.276-2.012,0.832c-0.544,0.555-0.815,1.26-0.815,2.114
		c0,0.953,0.342,1.707,1.026,2.263c0.532,0.434,1.142,0.649,1.83,0.649c0.778,0,1.441-0.28,1.988-0.844s0.821-1.257,0.821-2.08
		c0-0.82-0.276-1.515-0.827-2.083C22.4,37.01,21.73,36.727,20.94,36.727z"/>
	<path stroke="#000000" stroke-width="0.25" stroke-miterlimit="10" d="M34.924,36.743l-1.155,1.143
		c-0.731-0.772-1.583-1.159-2.557-1.159c-0.848,0-1.559,0.28-2.131,0.844c-0.573,0.562-0.859,1.246-0.859,2.051
		c0,0.832,0.297,1.537,0.892,2.115c0.595,0.578,1.328,0.867,2.2,0.867c0.567,0,1.045-0.119,1.434-0.357s0.703-0.611,0.941-1.119
		h-2.496v-1.541h4.336l0.012,0.363c0,0.754-0.195,1.469-0.586,2.145s-0.896,1.191-1.518,1.547c-0.622,0.356-1.35,0.533-2.186,0.533
		c-0.895,0-1.692-0.193-2.394-0.583c-0.702-0.389-1.256-0.942-1.664-1.661c-0.408-0.719-0.612-1.494-0.612-2.326
		c0-1.141,0.377-2.133,1.131-2.977c0.895-1.004,2.059-1.506,3.492-1.506c0.75,0,1.451,0.139,2.104,0.416
		C33.857,35.771,34.396,36.173,34.924,36.743z"/>
	<path stroke="#000000" stroke-width="0.25" stroke-miterlimit="10" d="M41.114,35.12c1.22,0,2.268,0.44,3.146,1.323
		c0.878,0.884,1.316,1.959,1.316,3.229c0,1.259-0.433,2.322-1.299,3.193c-0.866,0.87-1.916,1.307-3.151,1.307
		c-1.294,0-2.369-0.446-3.225-1.342s-1.284-1.957-1.284-3.188c0-0.824,0.199-1.582,0.598-2.272c0.398-0.69,0.947-1.239,1.645-1.644
		C39.558,35.32,40.309,35.12,41.114,35.12z M41.097,36.727c-0.798,0-1.468,0.276-2.012,0.832c-0.544,0.555-0.815,1.26-0.815,2.114
		c0,0.953,0.342,1.707,1.026,2.263c0.532,0.434,1.142,0.649,1.83,0.649c0.778,0,1.441-0.28,1.988-0.844
		c0.547-0.563,0.821-1.257,0.821-2.08c0-0.82-0.276-1.515-0.827-2.083C42.557,37.01,41.887,36.727,41.097,36.727z"/>
</g>
<rect x="65" y="38" width="12" height="3"/>
<rect x="85" y="38" width="12" height="3"/>
<rect x="105" y="38" width="12" height="3"/>
<rect x="125" y="38" width="12" height="3"/>
<rect x="167.5" y="32.5" fill="#FFFFFF" stroke="#000000" stroke-width="0.5" stroke-miterlimit="10" width="65" height="14"/>
<g>
	<path d="M227.992,41.805c0.13,0.131,0.195,0.287,0.195,0.469c0,0.183-0.065,0.338-0.195,0.47c-0.131,0.131-0.286,0.194-0.469,0.194
		c-0.184,0-0.34-0.063-0.469-0.194l-1.728-1.728c-0.005-0.006-0.009-0.01-0.013-0.016c-0.002-0.006-0.006-0.01-0.012-0.016
		c-0.255,0.172-0.535,0.305-0.84,0.397s-0.621,0.142-0.949,0.142c-0.453,0-0.877-0.086-1.272-0.258
		c-0.396-0.166-0.741-0.398-1.035-0.695s-0.526-0.644-0.699-1.039c-0.172-0.396-0.258-0.818-0.258-1.266
		c0-0.453,0.086-0.877,0.258-1.273c0.173-0.396,0.405-0.74,0.699-1.035s0.64-0.527,1.035-0.699S223.062,35,223.516,35
		c0.448,0,0.871,0.086,1.267,0.258s0.741,0.404,1.038,0.699c0.298,0.295,0.529,0.639,0.695,1.035
		c0.172,0.396,0.258,0.82,0.258,1.273c0,0.327-0.047,0.645-0.141,0.948s-0.227,0.584-0.398,0.841
		c0.006,0.006,0.012,0.01,0.017,0.012s0.011,0.006,0.017,0.012L227.992,41.805z M223.516,40.391c0.293,0,0.567-0.055,0.828-0.164
		c0.262-0.108,0.487-0.262,0.68-0.457c0.193-0.194,0.345-0.42,0.453-0.676c0.109-0.26,0.164-0.537,0.164-0.828
		c0-0.297-0.055-0.576-0.164-0.836c-0.108-0.256-0.261-0.479-0.453-0.672c-0.191-0.193-0.418-0.346-0.68-0.461
		c-0.261-0.109-0.535-0.164-0.828-0.164c-0.297,0-0.574,0.055-0.836,0.164c-0.255,0.115-0.479,0.268-0.672,0.461
		s-0.347,0.416-0.461,0.672c-0.109,0.26-0.164,0.539-0.164,0.836c0,0.291,0.055,0.568,0.164,0.828c0.114,0.26,0.27,0.486,0.461,0.68
		c0.192,0.194,0.417,0.345,0.672,0.453C222.939,40.336,223.219,40.391,223.516,40.391z"/>
</g>
<g>
	<path fill="#FFFFFF" stroke="#FFFFFF" stroke-width="0.25" stroke-miterlimit="10" d="M221.126,5.686
		c-0.123,0-0.228-0.042-0.312-0.127c-0.086-0.084-0.127-0.188-0.127-0.311c0-0.115,0.041-0.217,0.127-0.305
		c0.084-0.088,0.188-0.132,0.312-0.132h1.58c0.101,0,0.188,0.03,0.265,0.092c0.076,0.061,0.131,0.138,0.161,0.23l1.775,6.443h4.862
		l1.615-3.711h-5.384c-0.123,0-0.228-0.042-0.312-0.127c-0.084-0.084-0.127-0.184-0.127-0.3c0-0.123,0.043-0.227,0.127-0.311
		C225.775,7.042,225.879,7,226.002,7h6.053c0.076,0,0.147,0.017,0.213,0.052c0.065,0.034,0.117,0.083,0.155,0.144
		s0.062,0.128,0.069,0.202c0.007,0.073-0.004,0.144-0.035,0.213l-1.993,4.588c-0.04,0.076-0.093,0.138-0.163,0.184
		c-0.068,0.046-0.146,0.069-0.24,0.069h-5.477c-0.1,0-0.189-0.029-0.27-0.087c-0.082-0.058-0.135-0.137-0.156-0.236l-1.787-6.444
		L221.126,5.686L221.126,5.686z M224.169,15.53c-0.276,0-0.511-0.098-0.702-0.294c-0.191-0.196-0.289-0.428-0.289-0.697
		c0-0.277,0.098-0.511,0.289-0.703c0.191-0.191,0.426-0.288,0.702-0.288c0.271,0,0.502,0.097,0.698,0.288
		c0.195,0.192,0.294,0.426,0.294,0.703c0,0.269-0.099,0.501-0.294,0.697C224.671,15.432,224.438,15.53,224.169,15.53z
		 M230.348,15.53c-0.254,0-0.475-0.09-0.662-0.271c-0.188-0.181-0.295-0.397-0.316-0.652c-0.016-0.276,0.064-0.518,0.24-0.726
		c0.178-0.208,0.406-0.319,0.681-0.334c0.271-0.015,0.509,0.065,0.716,0.242c0.208,0.177,0.318,0.403,0.334,0.68
		c0.01,0.131-0.008,0.258-0.047,0.381c-0.038,0.123-0.104,0.234-0.193,0.334c-0.086,0.1-0.187,0.179-0.301,0.236
		c-0.115,0.058-0.238,0.094-0.367,0.109h-0.043L230.348,15.53L230.348,15.53z"/>
</g>
<g>
	<path fill="#FFFFFF" stroke="#FFFFFF" stroke-width="0.5" stroke-miterlimit="10" d="M212.969,9.903v5.323H205.1V9.903h1.377V7.557
		c0-0.18,0.018-0.352,0.051-0.515s0.086-0.321,0.16-0.474c0.065-0.153,0.146-0.298,0.238-0.434c0.096-0.137,0.197-0.262,0.311-0.375
		c0.113-0.113,0.238-0.216,0.375-0.31c0.136-0.093,0.281-0.173,0.435-0.24c0.153-0.073,0.312-0.127,0.474-0.16
		c0.164-0.033,0.336-0.05,0.516-0.05s0.352,0.017,0.515,0.05c0.163,0.033,0.32,0.086,0.474,0.16c0.154,0.067,0.301,0.146,0.436,0.24
		c0.137,0.093,0.262,0.196,0.375,0.31c0.113,0.113,0.216,0.238,0.311,0.375c0.094,0.136,0.172,0.281,0.239,0.434
		c0.073,0.153,0.125,0.312,0.159,0.474c0.034,0.163,0.05,0.335,0.05,0.515v2.346H212.969z M212.578,10.323h-7.092v4.514h7.092
		V10.323z M206.866,9.903h4.334V7.557c0-0.147-0.015-0.288-0.046-0.424c-0.029-0.137-0.074-0.272-0.133-0.405
		c-0.056-0.133-0.121-0.257-0.201-0.369c-0.08-0.113-0.17-0.22-0.271-0.32c-0.093-0.1-0.194-0.189-0.309-0.27
		c-0.114-0.08-0.236-0.149-0.37-0.209c-0.135-0.053-0.27-0.095-0.409-0.125c-0.142-0.03-0.282-0.045-0.43-0.045
		c-0.146,0-0.289,0.015-0.431,0.045c-0.14,0.029-0.275,0.071-0.408,0.125c-0.135,0.06-0.256,0.13-0.369,0.209
		c-0.114,0.081-0.217,0.17-0.311,0.27c-0.101,0.1-0.189,0.207-0.271,0.32c-0.079,0.112-0.146,0.236-0.199,0.369
		c-0.06,0.127-0.104,0.26-0.134,0.399c-0.031,0.14-0.047,0.283-0.047,0.43v2.346H206.866z"/>
</g>
</svg>
