<?xml version="1.0" encoding="utf-8"?>
<!-- Generator: Adobe Illustrator 16.0.0, SVG Export Plug-In . SVG Version: 6.00 Build 0)  -->
<!DOCTYPE svg PUBLIC "-//W3C//DTD SVG 1.1//EN" "http://www.w3.org/Graphics/SVG/1.1/DTD/svg11.dtd">
<svg version="1.1" id="Layer_1" xmlns="http://www.w3.org/2000/svg" xmlns:xlink="http://www.w3.org/1999/xlink" x="0px" y="0px"
	 width="245px" height="60px" viewBox="0 0 245 60" enable-background="new 0 0 245 60" xml:space="preserve">
<rect width="245" height="40"/>
<rect x="1" y="1" display="none" fill="#FFFFFF" width="243" height="20"/>
<g>
	<path fill="#FFFFFF" stroke="#FFFFFF" stroke-width="0.25" stroke-miterlimit="10" d="M12,15.69h1.641v7.055h2.391v1.564H12V15.69z
		"/>
	<path fill="#FFFFFF" stroke="#FFFFFF" stroke-width="0.25" stroke-miterlimit="10" d="M21.349,15.473
		c1.22,0,2.268,0.441,3.146,1.324c0.877,0.883,1.316,1.959,1.316,3.229c0,1.258-0.434,2.322-1.299,3.193
		c-0.866,0.871-1.916,1.307-3.151,1.307c-1.294,0-2.369-0.447-3.225-1.342c-0.856-0.895-1.284-1.957-1.284-3.188
		c0-0.824,0.199-1.582,0.598-2.273c0.398-0.691,0.947-1.239,1.645-1.644C19.793,15.674,20.543,15.473,21.349,15.473z M21.331,17.079
		c-0.798,0-1.468,0.277-2.012,0.832c-0.544,0.555-0.815,1.26-0.815,2.115c0,0.953,0.342,1.707,1.026,2.262
		c0.532,0.434,1.142,0.65,1.83,0.65c0.778,0,1.441-0.281,1.988-0.844c0.547-0.563,0.821-1.256,0.821-2.08
		c0-0.82-0.276-1.515-0.827-2.083C22.791,17.363,22.121,17.079,21.331,17.079z"/>
	<path fill="#FFFFFF" stroke="#FFFFFF" stroke-width="0.25" stroke-miterlimit="10" d="M35.314,17.096l-1.155,1.143
		c-0.731-0.773-1.583-1.16-2.558-1.16c-0.848,0-1.559,0.281-2.131,0.844c-0.573,0.562-0.859,1.246-0.859,2.051
		c0,0.832,0.297,1.537,0.892,2.115c0.595,0.578,1.327,0.867,2.2,0.867c0.566,0,1.045-0.119,1.434-0.357
		c0.389-0.238,0.703-0.611,0.941-1.119h-2.496v-1.541h4.336l0.012,0.363c0,0.754-0.195,1.469-0.586,2.145
		c-0.391,0.676-0.896,1.191-1.518,1.547s-1.35,0.533-2.186,0.533c-0.895,0-1.692-0.194-2.394-0.583
		c-0.702-0.389-1.256-0.942-1.664-1.661c-0.408-0.719-0.612-1.494-0.612-2.326c0-1.141,0.377-2.133,1.131-2.977
		c0.895-1.004,2.059-1.506,3.492-1.506c0.75,0,1.451,0.139,2.104,0.416C34.248,16.124,34.787,16.526,35.314,17.096z"/>
	<path fill="#FFFFFF" stroke="#FFFFFF" stroke-width="0.25" stroke-miterlimit="10" d="M41.505,15.473
		c1.22,0,2.269,0.441,3.146,1.324c0.877,0.883,1.316,1.959,1.316,3.229c0,1.258-0.434,2.322-1.299,3.193
		c-0.865,0.871-1.916,1.307-3.151,1.307c-1.294,0-2.368-0.447-3.225-1.342s-1.284-1.957-1.284-3.188
		c0-0.824,0.199-1.582,0.598-2.273s0.947-1.239,1.645-1.644C39.948,15.675,40.699,15.473,41.505,15.473z M41.487,17.079
		c-0.798,0-1.468,0.277-2.012,0.832c-0.544,0.555-0.815,1.26-0.815,2.115c0,0.953,0.342,1.707,1.026,2.262
		c0.532,0.434,1.142,0.65,1.83,0.65c0.778,0,1.44-0.281,1.988-0.844s0.821-1.256,0.821-2.08c0-0.82-0.275-1.515-0.827-2.083
		C42.946,17.363,42.277,17.079,41.487,17.079z"/>
</g>
<rect x="80" y="18.5" fill="#FFFFFF" width="12" height="3"/>
<rect x="100" y="18.5" fill="#FFFFFF" width="12" height="3"/>
<rect x="120" y="18.5" fill="#FFFFFF" width="12" height="3"/>
<g>
	<path fill="#FFFFFF" stroke="#FFFFFF" stroke-width="0.25" stroke-miterlimit="10" d="M221.46,15.516
		c-0.123,0-0.228-0.042-0.312-0.127c-0.086-0.084-0.127-0.188-0.127-0.311c0-0.115,0.041-0.218,0.127-0.306
		c0.084-0.089,0.188-0.132,0.312-0.132h1.58c0.101,0,0.188,0.029,0.265,0.092c0.076,0.061,0.131,0.138,0.161,0.23l1.775,6.443h4.862
		l1.615-3.712h-5.384c-0.123,0-0.228-0.042-0.312-0.127c-0.084-0.084-0.127-0.185-0.127-0.3c0-0.123,0.043-0.227,0.127-0.311
		c0.084-0.085,0.188-0.127,0.312-0.127h6.054c0.075,0,0.146,0.017,0.213,0.052c0.064,0.034,0.116,0.083,0.154,0.144
		c0.038,0.062,0.061,0.129,0.069,0.202c0.007,0.073-0.003,0.144-0.035,0.214l-1.993,4.588c-0.04,0.076-0.093,0.138-0.163,0.184
		c-0.067,0.046-0.147,0.069-0.241,0.069h-5.476c-0.101,0-0.19-0.028-0.271-0.087c-0.082-0.058-0.133-0.137-0.155-0.236l-1.787-6.443
		L221.46,15.516L221.46,15.516z M224.503,25.36c-0.276,0-0.511-0.098-0.702-0.294c-0.191-0.196-0.289-0.429-0.289-0.697
		c0-0.276,0.098-0.511,0.289-0.703c0.191-0.191,0.426-0.288,0.702-0.288c0.271,0,0.502,0.097,0.698,0.288
		c0.195,0.192,0.294,0.427,0.294,0.703c0,0.269-0.099,0.501-0.294,0.697C225.005,25.262,224.771,25.36,224.503,25.36z
		 M230.682,25.36c-0.254,0-0.475-0.09-0.662-0.271c-0.188-0.181-0.295-0.397-0.316-0.651c-0.016-0.277,0.064-0.519,0.24-0.727
		c0.178-0.207,0.406-0.318,0.681-0.334c0.271-0.016,0.509,0.065,0.716,0.242c0.208,0.177,0.318,0.403,0.334,0.68
		c0.01,0.131-0.008,0.258-0.047,0.381c-0.038,0.123-0.104,0.234-0.193,0.334c-0.086,0.1-0.187,0.179-0.301,0.236
		c-0.115,0.058-0.238,0.094-0.367,0.109h-0.043L230.682,25.36L230.682,25.36z"/>
</g>
<g>
	<path fill="#FFFFFF" stroke="#FFFFFF" stroke-width="0.5" stroke-miterlimit="10" d="M214.303,19.791v5.324h-7.869v-5.324h1.377
		v-2.346c0-0.18,0.018-0.352,0.051-0.515s0.086-0.321,0.16-0.474c0.065-0.154,0.146-0.299,0.238-0.435
		c0.096-0.137,0.197-0.262,0.311-0.375c0.113-0.113,0.238-0.216,0.375-0.31c0.136-0.094,0.281-0.173,0.435-0.24
		c0.153-0.072,0.312-0.127,0.474-0.159c0.164-0.033,0.336-0.05,0.516-0.05s0.352,0.017,0.515,0.05
		c0.163,0.032,0.32,0.087,0.474,0.159c0.154,0.067,0.301,0.146,0.436,0.24c0.137,0.094,0.262,0.196,0.375,0.31
		c0.113,0.113,0.216,0.238,0.311,0.375c0.094,0.136,0.172,0.28,0.239,0.435c0.073,0.152,0.125,0.311,0.159,0.474
		s0.05,0.335,0.05,0.515v2.346H214.303z M213.912,20.21h-7.092v4.514h7.092V20.21z M208.2,19.791h4.334v-2.346
		c0-0.146-0.015-0.287-0.046-0.424c-0.029-0.138-0.074-0.272-0.133-0.405c-0.056-0.133-0.121-0.257-0.201-0.369
		c-0.08-0.113-0.17-0.22-0.271-0.319c-0.093-0.101-0.194-0.189-0.309-0.271c-0.114-0.079-0.236-0.149-0.37-0.21
		c-0.135-0.053-0.27-0.095-0.409-0.124c-0.142-0.03-0.282-0.046-0.43-0.046c-0.146,0-0.289,0.016-0.431,0.046
		c-0.14,0.029-0.275,0.071-0.408,0.124c-0.135,0.061-0.256,0.131-0.369,0.21c-0.114,0.081-0.217,0.17-0.311,0.271
		c-0.101,0.1-0.189,0.206-0.271,0.319c-0.079,0.112-0.146,0.236-0.199,0.369c-0.06,0.127-0.104,0.26-0.134,0.399
		c-0.031,0.141-0.046,0.283-0.046,0.43v2.346H208.2z"/>
</g>
<g>
	<path fill="#FFFFFF" stroke="#FFFFFF" stroke-width="0.25" stroke-miterlimit="10" d="M195.575,21.935l2.665,2.666l-0.719,0.729
		l-2.666-2.904c-0.373,0.299-0.785,0.533-1.232,0.707s-0.925,0.26-1.432,0.26c-0.604,0-1.17-0.113-1.696-0.344
		c-0.527-0.221-0.989-0.529-1.386-0.926c-0.396-0.395-0.707-0.855-0.937-1.385c-0.229-0.527-0.344-1.096-0.344-1.707
		s0.114-1.18,0.344-1.707c0.229-0.533,0.541-0.996,0.937-1.391c0.396-0.393,0.857-0.699,1.386-0.92
		c0.526-0.23,1.093-0.344,1.696-0.344c0.598,0,1.16,0.113,1.687,0.344c0.526,0.221,0.989,0.527,1.386,0.92
		c0.396,0.395,0.707,0.857,0.938,1.391c0.229,0.527,0.343,1.096,0.343,1.707c0,0.529-0.084,1.049-0.255,1.566
		C196.118,21.115,195.881,21.56,195.575,21.935z M192.191,22.425c0.459,0,0.896-0.092,1.312-0.271
		c0.409-0.174,0.77-0.414,1.077-0.719c0.308-0.305,0.553-0.666,0.733-1.082c0.174-0.408,0.261-0.852,0.261-1.322
		c0-0.47-0.087-0.916-0.261-1.332c-0.182-0.408-0.426-0.768-0.733-1.072c-0.308-0.304-0.668-0.549-1.077-0.729
		c-0.417-0.176-0.854-0.26-1.312-0.26c-0.465,0-0.905,0.084-1.321,0.26c-0.41,0.18-0.771,0.424-1.078,0.729
		c-0.308,0.305-0.55,0.664-0.724,1.072c-0.182,0.416-0.271,0.861-0.271,1.332s0.091,0.914,0.271,1.322
		c0.174,0.416,0.416,0.777,0.724,1.082c0.31,0.305,0.668,0.545,1.078,0.719C191.286,22.334,191.729,22.425,192.191,22.425z"/>
</g>
<rect x="140" y="18.5" fill="#FFFFFF" width="12" height="3"/>
</svg>
